# xmcd CD database file
#
# Track frame offsets:
#	150
#	15146
#	37023
#	49953
#	64237
#	77659
#	97597
#	113782
#	131738
#	151356
#	166448
#
# Disc length: 2454 seconds
#
# Revision: 0
# Processed by: cddbd v1.5.2PL0 Copyright (c) Steve Scherf et al.
# Submitted via: CDex 1.70beta2
#
DISCID=8209940b
DTITLE=Marshall Chapman - Blaze of Glory
DYEAR=2013
DGENRE=Blues
TTITLE0=Love in the Wind
TTITLE1=I Don't Want Nobody
TTITLE2=Nearness of You
TTITLE3=Beyond Words
TTITLE4=Let's Make Waves
TTITLE5=Dreams and Memories 
TTITLE6=Blues Stay Away from Me
TTITLE7=Waiting for the Music
TTITLE8=Call the Lamas
TTITLE9=Not Afraid To Die
TTITLE10=Blaze of Glory
EXTD=YEAR: 2013
EXTT0=
EXTT1=
EXTT2=
EXTT3=
EXTT4=
EXTT5=
EXTT6=
EXTT7=
EXTT8=
EXTT9=
EXTT10=
PLAYORDER=
